<?xml version="1.0" encoding="UTF-8"?>
<!DOCTYPE svg PUBLIC "-//W3C//DTD SVG 1.1//EN" "http://www.w3.org/Graphics/SVG/1.1/DTD/svg11.dtd">
<svg xmlns="http://www.w3.org/2000/svg" version="1.1" width="512px" height="512px" style="shape-rendering:geometricPrecision; text-rendering:geometricPrecision; image-rendering:optimizeQuality; fill-rule:evenodd; clip-rule:evenodd" xmlns:xlink="http://www.w3.org/1999/xlink">
<g><path style="opacity:0.989" fill="#58a70a" d="M 261.5,214.5 C 274.942,251.711 279.442,290.044 275,329.5C 273.901,341.231 272.401,352.897 270.5,364.5C 274.833,364.5 279.167,364.5 283.5,364.5C 298.872,365.413 314.206,366.746 329.5,368.5C 344.563,337.875 360.563,307.709 377.5,278C 355.978,266.411 334.978,254.078 314.5,241C 334.589,204.123 365.589,188.789 407.5,195C 411.394,195.964 415.227,197.131 419,198.5C 422.152,194.874 424.819,190.874 427,186.5C 431.419,182.673 435.752,182.673 440,186.5C 442.335,193.211 441.001,199.211 436,204.5C 435.333,205.5 435.333,206.5 436,207.5C 462.602,227.05 474.269,253.384 471,286.5C 469.009,299.978 464.175,312.312 456.5,323.5C 435.082,311.04 413.582,298.707 392,286.5C 376.632,314.374 361.466,342.374 346.5,370.5C 391.077,378.97 433.744,393.137 474.5,413C 479.424,417.303 479.758,421.97 475.5,427C 472.634,428.457 469.634,428.79 466.5,428C 387.41,389.716 304.077,374.716 216.5,383C 156.305,388.465 98.6381,403.465 43.5,428C 32.8755,428.362 29.8755,423.695 34.5,414C 80.1109,392.965 127.778,378.465 177.5,370.5C 188.448,341.374 195.948,311.374 200,280.5C 204.247,244.973 200.581,210.307 189,176.5C 187.838,213.469 186.671,250.469 185.5,287.5C 163.266,269.678 152.933,246.345 154.5,217.5C 155.114,193.484 163.114,172.317 178.5,154C 140.199,173.99 102.199,194.823 64.5,216.5C 63.548,212.839 63.7147,209.172 65,205.5C 73.7742,179.723 90.6076,161.223 115.5,150C 132.88,142.912 150.88,140.245 169.5,142C 134.167,121 98.8333,100 63.5,79C 62.2888,78.1072 62.2888,77.2739 63.5,76.5C 80.0184,66.2867 97.3518,64.7867 115.5,72C 131.132,79.3932 145.299,88.8932 158,100.5C 152.026,63.5871 162.526,32.2538 189.5,6.5C 189.833,12.8333 190.167,19.1667 190.5,25.5C 189.686,59.8387 189.186,94.1721 189,128.5C 199.41,107.036 215.577,91.5362 237.5,82C 261.152,73.2028 285.152,72.2028 309.5,79C 274.662,98.92 239.662,118.587 204.5,138C 217.976,137.201 230.642,140.201 242.5,147C 274.242,162.97 294.742,188.137 304,222.5C 286.333,211.833 268.667,201.167 251,190.5C 254.713,198.273 258.213,206.273 261.5,214.5 Z M 204.5,169.5 C 215.479,186.922 222.646,205.922 226,226.5C 232.194,263.614 230.194,300.281 220,336.5C 216.924,346.56 213.757,356.56 210.5,366.5C 205.49,367.335 200.49,367.835 195.5,368C 218.228,311.784 223.728,253.95 212,194.5C 209.959,185.999 207.459,177.666 204.5,169.5 Z"/></g>
<g><path style="opacity:0.993" fill="#fbdd9d" d="M 203.5,167.5 C 203.897,166.475 204.563,166.308 205.5,167C 230.301,186.075 246.468,210.909 254,241.5C 260.516,270.548 262.183,299.881 259,329.5C 257.901,341.229 256.401,352.896 254.5,364.5C 239.838,365.262 225.171,365.928 210.5,366.5C 213.757,356.56 216.924,346.56 220,336.5C 230.194,300.281 232.194,263.614 226,226.5C 222.646,205.922 215.479,186.922 204.5,169.5C 204.672,168.508 204.338,167.842 203.5,167.5 Z"/></g>
<g><path style="opacity:1" fill="#f9dc9c" d="M 379.5,209.5 C 387.571,209.137 395.571,209.637 403.5,211C 404.167,211.333 404.833,211.667 405.5,212C 387.915,223.042 370.415,234.209 353,245.5C 348,242.5 343,239.5 338,236.5C 337.685,235.092 338.018,233.759 339,232.5C 349.982,220.263 363.482,212.596 379.5,209.5 Z"/></g>
<g><path style="opacity:0.979" fill="#f9dc9c" d="M 261.5,214.5 C 273.717,233.637 281.217,254.637 284,277.5C 287.414,306.526 287.248,335.526 283.5,364.5C 279.167,364.5 274.833,364.5 270.5,364.5C 272.401,352.897 273.901,341.231 275,329.5C 279.442,290.044 274.942,251.711 261.5,214.5 Z"/></g>
<g><path style="opacity:1" fill="#f9dc9c" d="M 431.5,225.5 C 437.147,228.982 441.647,233.649 445,239.5C 456.931,259.316 458.597,279.983 450,301.5C 443.499,297.248 436.832,293.248 430,289.5C 430.056,268.163 430.556,246.83 431.5,225.5 Z"/></g>
<g><path style="opacity:1" fill="#f7db9a" d="M 399.5,233.5 C 400.376,233.369 401.043,233.702 401.5,234.5C 396.171,244.313 390.671,253.98 385,263.5C 379.271,260.719 373.771,257.553 368.5,254C 379.242,247.64 389.575,240.807 399.5,233.5 Z"/></g>
<g><path style="opacity:1" fill="#f7db9a" d="M 414.5,241.5 C 415.165,244.984 415.499,248.651 415.5,252.5C 415.098,261.838 414.598,271.172 414,280.5C 408.881,277.696 404.047,274.529 399.5,271C 404.646,261.207 409.646,251.374 414.5,241.5 Z"/></g>
</svg>
